<svg height="512" viewBox="0 0 512 512" width="512" xmlns="http://www.w3.org/2000/svg"><g id="BULINE"><circle cx="256" cy="256" fill="#27273d" r="256"/></g><g id="Icons"><path d="m447.5 256a191.5 191.5 0 1 1 -383 0c0-.45 0-.91 0-1.35a190.46 190.46 0 0 1 18.13-80.05q3.72-7.95 8.15-15.48a191.48 191.48 0 0 1 356.14 81.82q.57 7.46.58 15.06z" fill="#f05c4c"/><g fill="#d91f26"><path d="m277.9 157a32.75 32.75 0 0 0 -46.27-27.83 42.56 42.56 0 0 1 -24.26 3.83 51.47 51.47 0 1 0 39 71.62 39.4 39.4 0 0 1 15.79-17.62 32.73 32.73 0 0 0 15.74-30z"/><path d="m321 338.07c-12.09-16.49-34.46-20.65-50-9.28-.69.52-1.37 1-2 1.6a5.48 5.48 0 0 1 -8-1v-.06c-16.79-22.91-47.88-28.68-69.44-12.89s-25.42 47.19-8.62 70.1 47.88 28.69 69.44 12.89l.19-.14a37.23 37.23 0 0 1 32.57-5.77 34 34 0 0 0 29.68-5c15.47-11.37 18.24-33.96 6.18-50.45z"/><path d="m279.84 446a193.28 193.28 0 0 1 -23.84 1.5c-105.76 0-191.49-85.74-191.49-191.5s85.73-191.5 191.49-191.5a193.28 193.28 0 0 1 23.84 1.5c-94.5 11.74-167.65 92.35-167.65 190s73.15 178.29 167.65 190z"/></g><path d="m447.5 256a190.79 190.79 0 0 1 -49.5 128.46 235.42 235.42 0 0 1 -61.53-302.28 191.52 191.52 0 0 1 111.03 173.82z" fill="#f2715b"/><path d="m109.74 229.94c18.59 14.83 57.88 35.51 120.36 17.74 1.35-.38 2.68-.8 4-1.23 6.44-2.09 39.41-11.06 61.31 16.12a19.3 19.3 0 0 1 3.95 16.5c-1.89 7.83-9.19 16.8-32.68 17a60.07 60.07 0 0 1 -34.2-10.72c-9.41-6.41-28.79-13.28-66.55-6.95a62.25 62.25 0 0 1 -35.29-4.1c-12.8-5.63-26.72-16.49-31.74-37.38a6.82 6.82 0 0 1 10.84-6.98z" fill="#d91f26"/><path d="m407 257.64c1.28-16.83-2.26-48.15-37.63-77.75-.76-.64-1.54-1.26-2.32-1.86-3.8-2.95-22.23-18.73-15-42.44a13.69 13.69 0 0 1 8.11-8.9c5.36-2 13.54-1.32 23 12.41a42.67 42.67 0 0 1 7.35 24.35c0 8.09 3.7 22.22 22.48 41.86a44.08 44.08 0 0 1 11.68 22.36c1.8 9.76 1 22.27-9.28 33.56a4.83 4.83 0 0 1 -8.39-3.59z" fill="#f05c4c"/><circle cx="264.77" cy="269.5" fill="#bf1b27" r="18.27"/><circle cx="131" cy="258.5" fill="#bf1b27" r="9.14"/><circle cx="212.47" cy="331.33" fill="#bf1b27" r="9.14"/><circle cx="288.98" cy="207.5" fill="#d91f26" r="9.14"/><circle cx="354.93" cy="389.03" fill="#d91f26" r="13.7"/><circle cx="147.82" cy="318.17" fill="#d91f26" r="13.7"/><circle cx="368.63" cy="290.93" fill="#f05c4c" r="25.86"/><circle cx="368.63" cy="216.64" fill="#f05c4c" r="12.21"/><circle cx="288.98" cy="105.5" fill="#d91f26" r="13.7"/><circle cx="367.66" cy="150.96" fill="#d91f26" r="9.14"/><circle cx="298.11" cy="357.93" fill="#bf1b27" r="19.37"/><circle cx="250.47" cy="155" fill="#bf1b27" r="18.8"/><circle cx="197.41" cy="185.33" fill="#bf1b27" r="25.23"/><circle cx="416.58" cy="309.33" fill="#f48576" r="8.84"/><circle cx="416.58" cy="290.93" fill="#f48576" r="6.26"/></g></svg>